<?xml version="1.0" encoding="utf-8"?>
<!-- Generator: Adobe Illustrator 24.1.2, SVG Export Plug-In . SVG Version: 6.00 Build 0)  -->
<svg version="1.1" id="Vrstva_1" text-rendering="auto" image-rendering="auto" shape-rendering="auto" color-rendering="auto"
	 xmlns="http://www.w3.org/2000/svg" xmlns:xlink="http://www.w3.org/1999/xlink" x="0px" y="0px" viewBox="0 0 1980 1406.1"
	 style="enable-background:new 0 0 1980 1406.1;" xml:space="preserve">
<style type="text/css">
	.st0{clip-path:url(#SVGID_2_);fill:#1E1F22;}
	.st1{clip-path:url(#SVGID_4_);fill:#3C3C3C;}
	.st2{clip-path:url(#SVGID_10_);fill:#3C3C3C;}
	.st3{clip-path:url(#SVGID_12_);enable-background:new    ;}
	.st4{fill:#A9B7C6;}
	.st5{font-family:'SegoeUI';}
	.st6{font-size:65px;}
	.st7{clip-path:url(#SVGID_14_);fill:none;stroke:#787878;stroke-width:4;stroke-linecap:square;stroke-miterlimit:40;}
	.st8{clip-path:url(#SVGID_16_);fill:#3C3C3C;}
	.st9{clip-path:url(#SVGID_24_);fill:#3C3C3C;}
	.st10{clip-path:url(#SVGID_26_);enable-background:new    ;}
	.st11{clip-path:url(#SVGID_28_);fill:none;stroke:#787878;stroke-width:4;stroke-linecap:square;stroke-miterlimit:40;}
	.st12{clip-path:url(#SVGID_30_);fill:#3C3C3C;}
	.st13{clip-path:url(#SVGID_38_);fill:#3C3C3C;}
	.st14{clip-path:url(#SVGID_40_);enable-background:new    ;}
	.st15{clip-path:url(#SVGID_42_);fill:none;stroke:#787878;stroke-width:4;stroke-linecap:square;stroke-miterlimit:40;}
	.st16{clip-path:url(#SVGID_44_);fill:#3C3C3C;}
	.st17{clip-path:url(#SVGID_50_);fill:#3C3C3C;}
	.st18{clip-path:url(#SVGID_52_);enable-background:new    ;}
	.st19{clip-path:url(#SVGID_54_);fill:none;stroke:#787878;stroke-width:4;stroke-linecap:square;stroke-miterlimit:40;}
	.st20{clip-path:url(#SVGID_56_);fill:#3C3C3C;}
	.st21{clip-path:url(#SVGID_64_);fill:#3C3C3C;}
	.st22{clip-path:url(#SVGID_66_);enable-background:new    ;}
	.st23{clip-path:url(#SVGID_68_);fill:none;stroke:#787878;stroke-width:4;stroke-linecap:square;stroke-miterlimit:40;}
	.st24{clip-path:url(#SVGID_70_);fill:#3C3C3C;}
	.st25{clip-path:url(#SVGID_76_);fill:#3C3C3C;}
	.st26{clip-path:url(#SVGID_78_);enable-background:new    ;}
	.st27{clip-path:url(#SVGID_80_);fill:none;stroke:#787878;stroke-width:4;stroke-linecap:square;stroke-miterlimit:40;}
	.st28{clip-path:url(#SVGID_82_);fill:#3C3C3C;}
	.st29{clip-path:url(#SVGID_88_);fill:#3C3C3C;}
	.st30{clip-path:url(#SVGID_90_);enable-background:new    ;}
	.st31{clip-path:url(#SVGID_92_);fill:none;stroke:#787878;stroke-width:4;stroke-linecap:square;stroke-miterlimit:40;}
	.st32{clip-path:url(#SVGID_94_);fill:#C0C0C0;}
	.st33{clip-path:url(#SVGID_96_);fill:#C0C0C0;}
	.st34{clip-path:url(#SVGID_98_);fill:#C0C0C0;}
	.st35{clip-path:url(#SVGID_100_);fill:#C0C0C0;}
	.st36{clip-path:url(#SVGID_102_);fill:#C0C0C0;}
	.st37{clip-path:url(#SVGID_104_);fill:#C0C0C0;}
	.st38{clip-path:url(#SVGID_106_);fill:#C0C0C0;}
	.st39{clip-path:url(#SVGID_108_);fill:#C0C0C0;}
	.st40{clip-path:url(#SVGID_110_);fill:#3C3C3C;}
	.st41{clip-path:url(#SVGID_118_);fill:#3C3C3C;}
	.st42{clip-path:url(#SVGID_120_);enable-background:new    ;}
	.st43{clip-path:url(#SVGID_122_);fill:none;stroke:#CC7832;stroke-width:4;stroke-linecap:square;stroke-miterlimit:40;}
	.st44{clip-path:url(#SVGID_124_);fill:none;stroke:#589DF6;stroke-width:4;stroke-miterlimit:5.8;}
	.st45{clip-path:url(#SVGID_126_);fill:#589DF6;}
	.st46{clip-path:url(#SVGID_128_);fill:none;stroke:#589DF6;stroke-width:4;stroke-miterlimit:5.8;}
	.st47{clip-path:url(#SVGID_130_);fill:#589DF6;}
	.st48{clip-path:url(#SVGID_132_);fill:none;stroke:#589DF6;stroke-width:4;stroke-miterlimit:5.8;}
	.st49{clip-path:url(#SVGID_134_);fill:#589DF6;}
	.st50{clip-path:url(#SVGID_136_);fill:none;stroke:#589DF6;stroke-width:4;stroke-miterlimit:5.8;}
	.st51{clip-path:url(#SVGID_138_);fill:#589DF6;}
</style>
<g>
	<g transform="scale(4,4) translate(195,367)">
		<g>
			<defs>
				<rect id="SVGID_1_" x="-937.5" y="-1367.5" width="1980" height="2668"/>
			</defs>
			<clipPath id="SVGID_2_">
				<use xlink:href="#SVGID_1_"  style="overflow:visible;"/>
			</clipPath>
			<rect x="-195" y="-367" class="st0" width="495" height="667"/>
		</g>
	</g>
	<g transform="matrix(4,0,0,4,780,1468) translate(21,-139)">
		<g>
			<defs>
				<rect id="SVGID_3_" x="-184.5" y="-46.5" width="492" height="124"/>
			</defs>
			<clipPath id="SVGID_4_">
				<use xlink:href="#SVGID_3_"  style="overflow:visible;"/>
			</clipPath>
			<rect class="st1" width="34" height="31"/>
		</g>
	</g>
	<g transform="matrix(1,0,0,1,880,940)" image-rendering="optimizeQuality">
		<g>
			<defs>
				<rect id="SVGID_5_" x="-16" y="-28" width="492" height="124"/>
			</defs>
			<clipPath id="SVGID_6_">
				<use xlink:href="#SVGID_5_"  style="overflow:visible;"/>
			</clipPath>
			
				<image style="overflow:visible;clip-path:url(#SVGID_6_);enable-background:new    ;" width="64" height="64" xlink:href="AC01C644.png" >
			</image>
		</g>
	</g>
	<g transform="matrix(4,0,0,4,780,1468) translate(21,-139) scale(0.25,0.25)">
		<g>
			<defs>
				<rect id="SVGID_7_" width="492" height="124"/>
			</defs>
			<clipPath id="SVGID_8_">
				<use xlink:href="#SVGID_7_"  style="overflow:visible;"/>
			</clipPath>
			<g style="clip-path:url(#SVGID_8_);enable-background:new    ;">
				
					<image style="overflow:visible;" width="96" height="96" xlink:href="AC01C645.png"  transform="matrix(0.6667 0 0 0.6667 80 28)">
				</image>
			</g>
		</g>
	</g>
	<g transform="matrix(4,0,0,4,864,912)">
		<g>
			<defs>
				<rect id="SVGID_9_" x="-184.5" y="-46.5" width="492" height="124"/>
			</defs>
			<clipPath id="SVGID_10_">
				<use xlink:href="#SVGID_9_"  style="overflow:visible;"/>
			</clipPath>
			<rect x="34" class="st2" width="89" height="31"/>
		</g>
	</g>
	<g text-rendering="optimizeSpeed" transform="matrix(4,0,0,4,864,912)" shape-rendering="optimizeSpeed">
		<g>
			<defs>
				<rect id="SVGID_11_" x="-184.5" y="-46.5" width="492" height="124"/>
			</defs>
			<clipPath id="SVGID_12_">
				<use xlink:href="#SVGID_11_"  style="overflow:visible;"/>
			</clipPath>
			<g class="st3">
				<text transform="matrix(0.25 0 0 0.25 38 22)" class="st4 st5 st6">FlightDiary</text>
			</g>
		</g>
	</g>
	<g transform="matrix(4,0,0,4,780,1468) translate(21,-139)">
		<g>
			<defs>
				<rect id="SVGID_13_" x="-184.5" y="-46.5" width="492" height="124"/>
			</defs>
			<clipPath id="SVGID_14_">
				<use xlink:href="#SVGID_13_"  style="overflow:visible;"/>
			</clipPath>
			<rect class="st7" width="123" height="31"/>
		</g>
	</g>
	<g transform="matrix(4,0,0,4,780,1468) translate(-135,-276)">
		<g>
			<defs>
				<rect id="SVGID_15_" x="-184.5" y="-46.5" width="492" height="124"/>
			</defs>
			<clipPath id="SVGID_16_">
				<use xlink:href="#SVGID_15_"  style="overflow:visible;"/>
			</clipPath>
			<rect class="st8" width="38" height="31"/>
		</g>
		<g>
			<defs>
				<rect id="SVGID_17_" x="-184.5" y="-46.5" width="492" height="124"/>
			</defs>
			<clipPath id="SVGID_18_">
				<use xlink:href="#SVGID_17_"  style="overflow:visible;"/>
			</clipPath>
			<g style="clip-path:url(#SVGID_18_);enable-background:new    ;">
				
					<image style="overflow:visible;" width="96" height="96" xlink:href="AC01C643.png"  transform="matrix(0.1667 0 0 0.1667 4 7)">
				</image>
			</g>
		</g>
		<g>
			<defs>
				<rect id="SVGID_19_" x="-184.5" y="-46.5" width="492" height="124"/>
			</defs>
			<clipPath id="SVGID_20_">
				<use xlink:href="#SVGID_19_"  style="overflow:visible;"/>
			</clipPath>
			<g style="clip-path:url(#SVGID_20_);enable-background:new    ;">
				
					<image style="overflow:visible;" width="96" height="96" xlink:href="AC01C64C.png"  transform="matrix(0.1667 0 0 0.1667 4 7)">
				</image>
			</g>
		</g>
		<g>
			<defs>
				<rect id="SVGID_21_" x="-184.5" y="-46.5" width="492" height="124"/>
			</defs>
			<clipPath id="SVGID_22_">
				<use xlink:href="#SVGID_21_"  style="overflow:visible;"/>
			</clipPath>
			<g style="clip-path:url(#SVGID_22_);enable-background:new    ;">
				
					<image style="overflow:visible;" width="96" height="96" xlink:href="AC01C64F.png"  transform="matrix(0.1667 0 0 0.1667 20 7)">
				</image>
			</g>
		</g>
	</g>
	<g transform="matrix(4,0,0,4,240,364)">
		<g>
			<defs>
				<rect id="SVGID_23_" x="-184.5" y="-46.5" width="492" height="124"/>
			</defs>
			<clipPath id="SVGID_24_">
				<use xlink:href="#SVGID_23_"  style="overflow:visible;"/>
			</clipPath>
			<rect x="38" class="st9" width="85" height="31"/>
		</g>
	</g>
	<g text-rendering="optimizeSpeed" transform="matrix(4,0,0,4,240,364)" shape-rendering="optimizeSpeed">
		<g>
			<defs>
				<rect id="SVGID_25_" x="-184.5" y="-46.5" width="492" height="124"/>
			</defs>
			<clipPath id="SVGID_26_">
				<use xlink:href="#SVGID_25_"  style="overflow:visible;"/>
			</clipPath>
			<g class="st10">
				<text transform="matrix(0.25 0 0 0.25 42 22)" class="st4 st5 st6">InputValid</text>
			</g>
		</g>
	</g>
	<g transform="matrix(4,0,0,4,780,1468) translate(-135,-276)">
		<g>
			<defs>
				<rect id="SVGID_27_" x="-184.5" y="-46.5" width="492" height="124"/>
			</defs>
			<clipPath id="SVGID_28_">
				<use xlink:href="#SVGID_27_"  style="overflow:visible;"/>
			</clipPath>
			<rect class="st11" width="123" height="31"/>
		</g>
	</g>
	<g transform="matrix(4,0,0,4,780,1468) translate(-175,-63)">
		<g>
			<defs>
				<rect id="SVGID_29_" x="-117" y="-46.5" width="312" height="124"/>
			</defs>
			<clipPath id="SVGID_30_">
				<use xlink:href="#SVGID_29_"  style="overflow:visible;"/>
			</clipPath>
			<rect class="st12" width="34" height="31"/>
		</g>
		<g>
			<defs>
				<rect id="SVGID_31_" x="-117" y="-46.5" width="312" height="124"/>
			</defs>
			<clipPath id="SVGID_32_">
				<use xlink:href="#SVGID_31_"  style="overflow:visible;"/>
			</clipPath>
			<g style="clip-path:url(#SVGID_32_);enable-background:new    ;">
				
					<image style="overflow:visible;" width="96" height="96" xlink:href="AC01C64D.png"  transform="matrix(0.1667 0 0 0.1667 4 7)">
				</image>
			</g>
		</g>
		<g>
			<defs>
				<rect id="SVGID_33_" x="-117" y="-46.5" width="312" height="124"/>
			</defs>
			<clipPath id="SVGID_34_">
				<use xlink:href="#SVGID_33_"  style="overflow:visible;"/>
			</clipPath>
			<g style="clip-path:url(#SVGID_34_);enable-background:new    ;">
				
					<image style="overflow:visible;" width="96" height="96" xlink:href="AC01C642.png"  transform="matrix(0.1667 0 0 0.1667 4 7)">
				</image>
			</g>
		</g>
		<g>
			<defs>
				<rect id="SVGID_35_" x="-117" y="-46.5" width="312" height="124"/>
			</defs>
			<clipPath id="SVGID_36_">
				<use xlink:href="#SVGID_35_"  style="overflow:visible;"/>
			</clipPath>
			<g style="clip-path:url(#SVGID_36_);enable-background:new    ;">
				
					<image style="overflow:visible;" width="96" height="96" xlink:href="AC01C646.png"  transform="matrix(0.1667 0 0 0.1667 20 7)">
				</image>
			</g>
		</g>
	</g>
	<g transform="matrix(4,0,0,4,80,1216)">
		<g>
			<defs>
				<rect id="SVGID_37_" x="-117" y="-46.5" width="312" height="124"/>
			</defs>
			<clipPath id="SVGID_38_">
				<use xlink:href="#SVGID_37_"  style="overflow:visible;"/>
			</clipPath>
			<rect x="34" class="st13" width="44" height="31"/>
		</g>
	</g>
	<g text-rendering="optimizeSpeed" transform="matrix(4,0,0,4,80,1216)" shape-rendering="optimizeSpeed">
		<g>
			<defs>
				<rect id="SVGID_39_" x="-117" y="-46.5" width="312" height="124"/>
			</defs>
			<clipPath id="SVGID_40_">
				<use xlink:href="#SVGID_39_"  style="overflow:visible;"/>
			</clipPath>
			<g class="st14">
				<text transform="matrix(0.25 0 0 0.25 38 22)" class="st4 st5 st6">Pilot</text>
			</g>
		</g>
	</g>
	<g transform="matrix(4,0,0,4,780,1468) translate(-175,-63)">
		<g>
			<defs>
				<rect id="SVGID_41_" x="-117" y="-46.5" width="312" height="124"/>
			</defs>
			<clipPath id="SVGID_42_">
				<use xlink:href="#SVGID_41_"  style="overflow:visible;"/>
			</clipPath>
			<rect class="st15" width="78" height="31"/>
		</g>
	</g>
	<g transform="matrix(4,0,0,4,780,1468) translate(33,-347)">
		<g>
			<defs>
				<rect id="SVGID_43_" x="-133.5" y="-46.5" width="356" height="124"/>
			</defs>
			<clipPath id="SVGID_44_">
				<use xlink:href="#SVGID_43_"  style="overflow:visible;"/>
			</clipPath>
			<rect class="st16" width="38" height="31"/>
		</g>
	</g>
	<g transform="matrix(1,0,0,1,928,108)" image-rendering="optimizeQuality">
		<g>
			<defs>
				<rect id="SVGID_45_" x="-16" y="-28" width="356" height="124"/>
			</defs>
			<clipPath id="SVGID_46_">
				<use xlink:href="#SVGID_45_"  style="overflow:visible;"/>
			</clipPath>
			
				<image style="overflow:visible;clip-path:url(#SVGID_46_);enable-background:new    ;" width="64" height="64" xlink:href="AC01C647.png" >
			</image>
		</g>
	</g>
	<g transform="matrix(4,0,0,4,780,1468) translate(33,-347) scale(0.25,0.25)">
		<g>
			<defs>
				<rect id="SVGID_47_" width="356" height="124"/>
			</defs>
			<clipPath id="SVGID_48_">
				<use xlink:href="#SVGID_47_"  style="overflow:visible;"/>
			</clipPath>
			<g style="clip-path:url(#SVGID_48_);enable-background:new    ;">
				
					<image style="overflow:visible;" width="96" height="96" xlink:href="DC41A823.png"  transform="matrix(0.6667 0 0 0.6667 80 28)">
				</image>
			</g>
		</g>
	</g>
	<g transform="matrix(4,0,0,4,912,80)">
		<g>
			<defs>
				<rect id="SVGID_49_" x="-133.5" y="-46.5" width="356" height="124"/>
			</defs>
			<clipPath id="SVGID_50_">
				<use xlink:href="#SVGID_49_"  style="overflow:visible;"/>
			</clipPath>
			<rect x="38" class="st17" width="51" height="31"/>
		</g>
	</g>
	<g text-rendering="optimizeSpeed" transform="matrix(4,0,0,4,912,80)" shape-rendering="optimizeSpeed">
		<g>
			<defs>
				<rect id="SVGID_51_" x="-133.5" y="-46.5" width="356" height="124"/>
			</defs>
			<clipPath id="SVGID_52_">
				<use xlink:href="#SVGID_51_"  style="overflow:visible;"/>
			</clipPath>
			<g class="st18">
				<text transform="matrix(0.25 0 0 0.25 42 22)" class="st4 st5 st6">Plane</text>
			</g>
		</g>
	</g>
	<g transform="matrix(4,0,0,4,780,1468) translate(33,-347)">
		<g>
			<defs>
				<rect id="SVGID_53_" x="-133.5" y="-46.5" width="356" height="124"/>
			</defs>
			<clipPath id="SVGID_54_">
				<use xlink:href="#SVGID_53_"  style="overflow:visible;"/>
			</clipPath>
			<rect class="st19" width="89" height="31"/>
		</g>
	</g>
	<g transform="matrix(4,0,0,4,780,1468) translate(-135,-215)">
		<g>
			<defs>
				<rect id="SVGID_55_" x="-126" y="-46.5" width="336" height="124"/>
			</defs>
			<clipPath id="SVGID_56_">
				<use xlink:href="#SVGID_55_"  style="overflow:visible;"/>
			</clipPath>
			<rect class="st20" width="34" height="31"/>
		</g>
	</g>
	<g transform="matrix(1,0,0,1,256,636)" image-rendering="optimizeQuality">
		<g>
			<defs>
				<rect id="SVGID_57_" x="-16" y="-28" width="336" height="124"/>
			</defs>
			<clipPath id="SVGID_58_">
				<use xlink:href="#SVGID_57_"  style="overflow:visible;"/>
			</clipPath>
			
				<image style="overflow:visible;clip-path:url(#SVGID_58_);enable-background:new    ;" width="64" height="64" xlink:href="DC41A821.png" >
			</image>
		</g>
	</g>
	<g transform="matrix(4,0,0,4,780,1468) translate(-135,-215) scale(0.25,0.25)">
		<g>
			<defs>
				<rect id="SVGID_59_" width="336" height="124"/>
			</defs>
			<clipPath id="SVGID_60_">
				<use xlink:href="#SVGID_59_"  style="overflow:visible;"/>
			</clipPath>
			<g style="clip-path:url(#SVGID_60_);enable-background:new    ;">
				
					<image style="overflow:visible;" width="96" height="96" xlink:href="DC41A827.png"  transform="matrix(0.6667 0 0 0.6667 16 28)">
				</image>
			</g>
		</g>
		<g>
			<defs>
				<rect id="SVGID_61_" width="336" height="124"/>
			</defs>
			<clipPath id="SVGID_62_">
				<use xlink:href="#SVGID_61_"  style="overflow:visible;"/>
			</clipPath>
			<g style="clip-path:url(#SVGID_62_);enable-background:new    ;">
				
					<image style="overflow:visible;" width="96" height="96" xlink:href="DC41A822.png"  transform="matrix(0.6667 0 0 0.6667 80 28)">
				</image>
			</g>
		</g>
	</g>
	<g transform="matrix(4,0,0,4,240,608)">
		<g>
			<defs>
				<rect id="SVGID_63_" x="-126" y="-46.5" width="336" height="124"/>
			</defs>
			<clipPath id="SVGID_64_">
				<use xlink:href="#SVGID_63_"  style="overflow:visible;"/>
			</clipPath>
			<rect x="34" class="st21" width="50" height="31"/>
		</g>
	</g>
	<g text-rendering="optimizeSpeed" transform="matrix(4,0,0,4,240,608)" shape-rendering="optimizeSpeed">
		<g>
			<defs>
				<rect id="SVGID_65_" x="-126" y="-46.5" width="336" height="124"/>
			</defs>
			<clipPath id="SVGID_66_">
				<use xlink:href="#SVGID_65_"  style="overflow:visible;"/>
			</clipPath>
			<g class="st22">
				<text transform="matrix(0.25 0 0 0.25 38 22)" class="st4 st5 st6">Tools</text>
			</g>
		</g>
	</g>
	<g transform="matrix(4,0,0,4,780,1468) translate(-135,-215)">
		<g>
			<defs>
				<rect id="SVGID_67_" x="-126" y="-46.5" width="336" height="124"/>
			</defs>
			<clipPath id="SVGID_68_">
				<use xlink:href="#SVGID_67_"  style="overflow:visible;"/>
			</clipPath>
			<rect class="st23" width="84" height="31"/>
		</g>
	</g>
	<g transform="matrix(4,0,0,4,780,1468) translate(-175,-139)">
		<g>
			<defs>
				<rect id="SVGID_69_" x="-226.5" y="-46.5" width="604" height="124"/>
			</defs>
			<clipPath id="SVGID_70_">
				<use xlink:href="#SVGID_69_"  style="overflow:visible;"/>
			</clipPath>
			<rect class="st24" width="34" height="31"/>
		</g>
		<g>
			<defs>
				<rect id="SVGID_71_" x="-226.5" y="-46.5" width="604" height="124"/>
			</defs>
			<clipPath id="SVGID_72_">
				<use xlink:href="#SVGID_71_"  style="overflow:visible;"/>
			</clipPath>
			<g style="clip-path:url(#SVGID_72_);enable-background:new    ;">
				
					<image style="overflow:visible;" width="96" height="96" xlink:href="DC41A83D.png"  transform="matrix(0.1667 0 0 0.1667 4 7)">
				</image>
			</g>
		</g>
		<g>
			<defs>
				<rect id="SVGID_73_" x="-226.5" y="-46.5" width="604" height="124"/>
			</defs>
			<clipPath id="SVGID_74_">
				<use xlink:href="#SVGID_73_"  style="overflow:visible;"/>
			</clipPath>
			<g style="clip-path:url(#SVGID_74_);enable-background:new    ;">
				
					<image style="overflow:visible;" width="96" height="96" xlink:href="DC41A83E.png"  transform="matrix(0.1667 0 0 0.1667 20 7)">
				</image>
			</g>
		</g>
	</g>
	<g transform="matrix(4,0,0,4,80,912)">
		<g>
			<defs>
				<rect id="SVGID_75_" x="-226.5" y="-46.5" width="604" height="124"/>
			</defs>
			<clipPath id="SVGID_76_">
				<use xlink:href="#SVGID_75_"  style="overflow:visible;"/>
			</clipPath>
			<rect x="34" class="st25" width="117" height="31"/>
		</g>
	</g>
	<g text-rendering="optimizeSpeed" transform="matrix(4,0,0,4,80,912)" shape-rendering="optimizeSpeed">
		<g>
			<defs>
				<rect id="SVGID_77_" x="-226.5" y="-46.5" width="604" height="124"/>
			</defs>
			<clipPath id="SVGID_78_">
				<use xlink:href="#SVGID_77_"  style="overflow:visible;"/>
			</clipPath>
			<g class="st26">
				<text transform="matrix(0.25 0 0 0.25 38 22)" class="st4 st5 st6">TypeOfLicence</text>
			</g>
		</g>
	</g>
	<g transform="matrix(4,0,0,4,780,1468) translate(-175,-139)">
		<g>
			<defs>
				<rect id="SVGID_79_" x="-226.5" y="-46.5" width="604" height="124"/>
			</defs>
			<clipPath id="SVGID_80_">
				<use xlink:href="#SVGID_79_"  style="overflow:visible;"/>
			</clipPath>
			<rect class="st27" width="151" height="31"/>
		</g>
	</g>
	<g transform="matrix(4,0,0,4,780,1468) translate(73,-276)">
		<g>
			<defs>
				<rect id="SVGID_81_" x="-135" y="-46.5" width="360" height="124"/>
			</defs>
			<clipPath id="SVGID_82_">
				<use xlink:href="#SVGID_81_"  style="overflow:visible;"/>
			</clipPath>
			<rect class="st28" width="38" height="31"/>
		</g>
	</g>
	<g transform="matrix(1,0,0,1,1088,392)" image-rendering="optimizeQuality">
		<g>
			<defs>
				<rect id="SVGID_83_" x="-16" y="-28" width="360" height="124"/>
			</defs>
			<clipPath id="SVGID_84_">
				<use xlink:href="#SVGID_83_"  style="overflow:visible;"/>
			</clipPath>
			
				<image style="overflow:visible;clip-path:url(#SVGID_84_);enable-background:new    ;" width="64" height="64" xlink:href="DC41A83F.png" >
			</image>
		</g>
	</g>
	<g transform="matrix(4,0,0,4,780,1468) translate(73,-276) scale(0.25,0.25)">
		<g>
			<defs>
				<rect id="SVGID_85_" width="360" height="124"/>
			</defs>
			<clipPath id="SVGID_86_">
				<use xlink:href="#SVGID_85_"  style="overflow:visible;"/>
			</clipPath>
			<g style="clip-path:url(#SVGID_86_);enable-background:new    ;">
				
					<image style="overflow:visible;" width="96" height="96" xlink:href="DC41A824.png"  transform="matrix(0.6667 0 0 0.6667 80 28)">
				</image>
			</g>
		</g>
	</g>
	<g transform="matrix(4,0,0,4,1072,364)">
		<g>
			<defs>
				<rect id="SVGID_87_" x="-135" y="-46.5" width="360" height="124"/>
			</defs>
			<clipPath id="SVGID_88_">
				<use xlink:href="#SVGID_87_"  style="overflow:visible;"/>
			</clipPath>
			<rect x="38" class="st29" width="52" height="31"/>
		</g>
	</g>
	<g text-rendering="optimizeSpeed" transform="matrix(4,0,0,4,1072,364)" shape-rendering="optimizeSpeed">
		<g>
			<defs>
				<rect id="SVGID_89_" x="-135" y="-46.5" width="360" height="124"/>
			</defs>
			<clipPath id="SVGID_90_">
				<use xlink:href="#SVGID_89_"  style="overflow:visible;"/>
			</clipPath>
			<g class="st30">
				<text transform="matrix(0.25 0 0 0.25 42 22)" class="st4 st5 st6">Flight</text>
			</g>
		</g>
	</g>
	<g transform="matrix(4,0,0,4,780,1468) translate(73,-276)">
		<g>
			<defs>
				<rect id="SVGID_91_" x="-135" y="-46.5" width="360" height="124"/>
			</defs>
			<clipPath id="SVGID_92_">
				<use xlink:href="#SVGID_91_"  style="overflow:visible;"/>
			</clipPath>
			<rect class="st31" width="90" height="31"/>
		</g>
	</g>
	<g transform="matrix(4,0,0,4,780,1468)">
		<g>
			<defs>
				<rect id="SVGID_93_" x="-937.5" y="-1367.5" width="1980" height="2668"/>
			</defs>
			<clipPath id="SVGID_94_">
				<use xlink:href="#SVGID_93_"  style="overflow:visible;"/>
			</clipPath>
			<rect x="-181" y="-353" class="st32" width="5" height="5"/>
		</g>
		<g>
			<defs>
				<rect id="SVGID_95_" x="-937.5" y="-1367.5" width="1980" height="2668"/>
			</defs>
			<clipPath id="SVGID_96_">
				<use xlink:href="#SVGID_95_"  style="overflow:visible;"/>
			</clipPath>
			<rect x="-181" y="-333.5" class="st33" width="5" height="5"/>
		</g>
		<g>
			<defs>
				<rect id="SVGID_97_" x="-937.5" y="-1367.5" width="1980" height="2668"/>
			</defs>
			<clipPath id="SVGID_98_">
				<use xlink:href="#SVGID_97_"  style="overflow:visible;"/>
			</clipPath>
			<rect x="-181" y="-314" class="st34" width="5" height="5"/>
		</g>
		<g>
			<defs>
				<rect id="SVGID_99_" x="-937.5" y="-1367.5" width="1980" height="2668"/>
			</defs>
			<clipPath id="SVGID_100_">
				<use xlink:href="#SVGID_99_"  style="overflow:visible;"/>
			</clipPath>
			<rect x="-134" y="-314" class="st35" width="5" height="5"/>
		</g>
		<g>
			<defs>
				<rect id="SVGID_101_" x="-937.5" y="-1367.5" width="1980" height="2668"/>
			</defs>
			<clipPath id="SVGID_102_">
				<use xlink:href="#SVGID_101_"  style="overflow:visible;"/>
			</clipPath>
			<rect x="-134" y="-353" class="st36" width="5" height="5"/>
		</g>
		<g>
			<defs>
				<rect id="SVGID_103_" x="-937.5" y="-1367.5" width="1980" height="2668"/>
			</defs>
			<clipPath id="SVGID_104_">
				<use xlink:href="#SVGID_103_"  style="overflow:visible;"/>
			</clipPath>
			<rect x="-87" y="-353" class="st37" width="5" height="5"/>
		</g>
		<g>
			<defs>
				<rect id="SVGID_105_" x="-937.5" y="-1367.5" width="1980" height="2668"/>
			</defs>
			<clipPath id="SVGID_106_">
				<use xlink:href="#SVGID_105_"  style="overflow:visible;"/>
			</clipPath>
			<rect x="-87" y="-333.5" class="st38" width="5" height="5"/>
		</g>
		<g>
			<defs>
				<rect id="SVGID_107_" x="-937.5" y="-1367.5" width="1980" height="2668"/>
			</defs>
			<clipPath id="SVGID_108_">
				<use xlink:href="#SVGID_107_"  style="overflow:visible;"/>
			</clipPath>
			<rect x="-87" y="-314" class="st39" width="5" height="5"/>
		</g>
	</g>
	<g transform="matrix(4,0,0,4,780,1468) translate(-175,-347)">
		<g>
			<defs>
				<rect id="SVGID_109_" x="-129" y="-46.5" width="344" height="124"/>
			</defs>
			<clipPath id="SVGID_110_">
				<use xlink:href="#SVGID_109_"  style="overflow:visible;"/>
			</clipPath>
			<rect class="st40" width="38" height="31"/>
		</g>
		<g>
			<defs>
				<rect id="SVGID_111_" x="-129" y="-46.5" width="344" height="124"/>
			</defs>
			<clipPath id="SVGID_112_">
				<use xlink:href="#SVGID_111_"  style="overflow:visible;"/>
			</clipPath>
			<g style="clip-path:url(#SVGID_112_);enable-background:new    ;">
				
					<image style="overflow:visible;" width="96" height="96" xlink:href="DC41A825.png"  transform="matrix(0.1667 0 0 0.1667 4 7)">
				</image>
			</g>
		</g>
		<g>
			<defs>
				<rect id="SVGID_113_" x="-129" y="-46.5" width="344" height="124"/>
			</defs>
			<clipPath id="SVGID_114_">
				<use xlink:href="#SVGID_113_"  style="overflow:visible;"/>
			</clipPath>
			<g style="clip-path:url(#SVGID_114_);enable-background:new    ;">
				
					<image style="overflow:visible;" width="96" height="96" xlink:href="DC41A826.png"  transform="matrix(0.1667 0 0 0.1667 4 7)">
				</image>
			</g>
		</g>
		<g>
			<defs>
				<rect id="SVGID_115_" x="-129" y="-46.5" width="344" height="124"/>
			</defs>
			<clipPath id="SVGID_116_">
				<use xlink:href="#SVGID_115_"  style="overflow:visible;"/>
			</clipPath>
			<g style="clip-path:url(#SVGID_116_);enable-background:new    ;">
				
					<image style="overflow:visible;" width="96" height="96" xlink:href="DC41A85A.png"  transform="matrix(0.1667 0 0 0.1667 20 7)">
				</image>
			</g>
		</g>
	</g>
	<g transform="matrix(4,0,0,4,80,80)">
		<g>
			<defs>
				<rect id="SVGID_117_" x="-129" y="-46.5" width="344" height="124"/>
			</defs>
			<clipPath id="SVGID_118_">
				<use xlink:href="#SVGID_117_"  style="overflow:visible;"/>
			</clipPath>
			<rect x="38" class="st41" width="48" height="31"/>
		</g>
	</g>
	<g text-rendering="optimizeSpeed" transform="matrix(4,0,0,4,80,80)" shape-rendering="optimizeSpeed">
		<g>
			<defs>
				<rect id="SVGID_119_" x="-129" y="-46.5" width="344" height="124"/>
			</defs>
			<clipPath id="SVGID_120_">
				<use xlink:href="#SVGID_119_"  style="overflow:visible;"/>
			</clipPath>
			<g class="st42">
				<text transform="matrix(0.25 0 0 0.25 42 22)" class="st4 st5 st6">Main</text>
			</g>
		</g>
	</g>
	<g transform="matrix(4,0,0,4,780,1468) translate(-175,-347)">
		<g>
			<defs>
				<rect id="SVGID_121_" x="-129" y="-46.5" width="344" height="124"/>
			</defs>
			<clipPath id="SVGID_122_">
				<use xlink:href="#SVGID_121_"  style="overflow:visible;"/>
			</clipPath>
			<rect class="st43" width="86" height="31"/>
		</g>
	</g>
	<g transform="matrix(4,0,0,4,780,1468)">
		<g>
			<defs>
				<rect id="SVGID_123_" x="-937.5" y="-1367.5" width="1980" height="2668"/>
			</defs>
			<clipPath id="SVGID_124_">
				<use xlink:href="#SVGID_123_"  style="overflow:visible;"/>
			</clipPath>
			<path class="st44" d="M38-316v10l0.6,4.4l1.9,3.1l3.1,1.9L48-296h60l7.5,1.1l1.9,1.4l0.6,2v4.5"/>
		</g>
	</g>
	<g transform="matrix(4,0,0,4,780,1468)">
		<g>
			<defs>
				<rect id="SVGID_125_" x="-937.5" y="-1367.5" width="1980" height="2668"/>
			</defs>
			<clipPath id="SVGID_126_">
				<use xlink:href="#SVGID_125_"  style="overflow:visible;"/>
			</clipPath>
			<path class="st45" d="M118-276l6-12h-12L118-276z"/>
		</g>
		<g>
			<defs>
				<rect id="SVGID_127_" x="-937.5" y="-1367.5" width="1980" height="2668"/>
			</defs>
			<clipPath id="SVGID_128_">
				<use xlink:href="#SVGID_127_"  style="overflow:visible;"/>
			</clipPath>
			<path class="st46" d="M86.5-139l24.7-95.4"/>
		</g>
		<g>
			<defs>
				<rect id="SVGID_129_" x="-937.5" y="-1367.5" width="1980" height="2668"/>
			</defs>
			<clipPath id="SVGID_130_">
				<use xlink:href="#SVGID_129_"  style="overflow:visible;"/>
			</clipPath>
			<path class="st47" d="M114-245l-8.8,10.1l11.6,3L114-245z"/>
		</g>
		<g>
			<defs>
				<rect id="SVGID_131_" x="-937.5" y="-1367.5" width="1980" height="2668"/>
			</defs>
			<clipPath id="SVGID_132_">
				<use xlink:href="#SVGID_131_"  style="overflow:visible;"/>
			</clipPath>
			<path class="st48" d="M-73.5-276v-10l-0.6-4.4l-1.9-3.1l-3.1-1.9l-4.4-0.6H-160l-7.5-1.1l-1.9-1.4l-0.6-2v-4.5"/>
		</g>
		<g>
			<defs>
				<rect id="SVGID_133_" x="-937.5" y="-1367.5" width="1980" height="2668"/>
			</defs>
			<clipPath id="SVGID_134_">
				<use xlink:href="#SVGID_133_"  style="overflow:visible;"/>
			</clipPath>
			<path class="st49" d="M-170-316l-6,12h12L-170-316z"/>
		</g>
		<g>
			<defs>
				<rect id="SVGID_135_" x="-937.5" y="-1367.5" width="1980" height="2668"/>
			</defs>
			<clipPath id="SVGID_136_">
				<use xlink:href="#SVGID_135_"  style="overflow:visible;"/>
			</clipPath>
			<path class="st50" d="M-93-215v-10l-0.6-4.4l-1.9-3.1l-3.1-1.9l-4.4-0.6h-57l-4.4-0.6l-3.1-1.9l-1.9-3.1l-0.6-4.4v-60"/>
		</g>
		<g>
			<defs>
				<rect id="SVGID_137_" x="-937.5" y="-1367.5" width="1980" height="2668"/>
			</defs>
			<clipPath id="SVGID_138_">
				<use xlink:href="#SVGID_137_"  style="overflow:visible;"/>
			</clipPath>
			<path class="st51" d="M-170-316l-6,12h12L-170-316z"/>
		</g>
	</g>
</g>
</svg>
